#!OML:ASF E:\Steps\Project 1\Capture day 1\Session 2\Subject.ASF
:FULLY-SPECIFIED
:DEGREES
20
root 9.67668 11.7835 4.34829 18.8717 -1.2676 -0.0887329
lowerback -0.592976 0.441905 -2.27634
upperback 1.9464 0.658053 -1.39549
thorax 2.32 0.299917 -0.139159
lowerneck -13.6372 -0.759361 8.12702
upperneck -11.4672 -2.07235 -0.638655
head -1.48209 -1.35829 -1.63665
rclavicle -2.78299e-015 -2.54444e-014
rhumerus 63.7569 -1.73459 -57.8507
rradius 18.7394
rwrist 29.9876
rhand -11.1323 -36.5061
rfingers 7.12502
rthumb 14.8931 -65.9507
lclavicle -2.78299e-015 -2.54444e-014
lhumerus 0 0 0
lradius 0
lwrist 0
lhand 0 0
lfingers 0
lthumb 0 0
rfemur -66.012 -6.61566 12.9679
rtibia 0
rfoot 0 0
rtoes 0
lfemur -69.1865 3.77058 -10.1638
ltibia 0
lfoot 0 0
ltoes 0
21
root 9.6778 11.7823 4.3492 18.7572 -1.29249 -0.0883921
lowerback -0.453144 0.448285 -2.30462
upperback 1.95683 0.662653 -1.40816
thorax 2.25187 0.30233 -0.137345
lowerneck -12.143 -1.01201 8.01906
upperneck -12.7472 -2.24064 -0.604444
head -2.15728 -1.47315 -1.59596
rclavicle 0 -2.06736e-014
rhumerus 63.7088 -1.73167 -57.9224
rradius 18.8017
rwrist 30.0677
rhand -11.0108 -36.5336
rfingers 7.12502
rthumb 15.0101 -65.9695
lclavicle 0 -2.06736e-014
lhumerus 0 0 0
lradius 0
lwrist 0
lhand 0 0
lfingers 0
lthumb 0 0
rfemur -65.8981 -6.57196 12.9395
rtibia 0
rfoot 0 0
rtoes 0
lfemur -69.0454 3.76101 -10.155
ltibia 0
lfoot 0 0
ltoes 0
22
root 9.67708 11.7795 4.34898 18.7343 -1.32397 -0.104071
lowerback -0.379451 0.445344 -2.34984
upperback 1.95243 0.656647 -1.40435
thorax 2.20549 0.298885 -0.108908
lowerneck -10.2306 -0.810149 6.11639
upperneck -14.0713 -1.42309 1.61191
head -2.8325 -1.05022 -0.518998
rclavicle -4.96962e-015 1.63003e-014
rhumerus 63.6975 -1.54199 -57.4278
rradius 18.8939
rwrist 29.5516
rhand -11.0143 -36.4691
rfingers 7.12502
rthumb 15.0068 -65.9053
lclavicle -4.96962e-015 1.63003e-014
lhumerus 0 0 0
lradius 0
lwrist 0
lhand 0 0
lfingers 0
lthumb 0 0
rfemur -65.9253 -6.50441 12.9441
rtibia 0
rfoot 0 0
rtoes 0
lfemur -69.0318 3.80676 -10.1426
ltibia 0
lfoot 0 0
ltoes 0
23
root 9.67664 11.7774 4.34989 18.6908 -1.37658 -0.0782498
lowerback -0.342477 0.452063 -2.38613
upperback 1.97762 0.666437 -1.45541
thorax 2.21076 0.303431 -0.141003
lowerneck -9.52805 -0.888429 7.01149
upperneck -15.156 -1.58813 0.787175
head -3.36589 -1.19281 -0.938587
rclavicle -2.78299e-015 8.34896e-015
rhumerus 63.7633 -1.5503 -57.4981
rradius 18.8223
rwrist 29.6246
rhand -11.0193 -36.375
rfingers 7.12502
rthumb 15.0019 -65.8116
lclavicle -2.78299e-015 8.34896e-015
lhumerus 0 0 0
lradius 0
lwrist 0
lhand 0 0
lfingers 0
lthumb 0 0
rfemur -65.9095 -6.4488 12.8969
rtibia 0
rfoot 0 0
rtoes 0
lfemur -68.9519 3.83699 -10.1809
ltibia 0
lfoot 0 0
ltoes 0
24
root 9.67846 11.7745 4.34885 18.6588 -1.39652 -0.0192018
lowerback -0.307808 0.468979 -2.39535
upperback 1.96552 0.689403 -1.55527
thorax 2.17967 0.316044 -0.238115
lowerneck -10.2419 -0.722426 6.90504
upperneck -14.3785 -1.40288 1.11846
head -2.95623 -1.07729 -0.813962
rclavicle -1.21259e-014 7.15625e-015
rhumerus 63.7403 -1.68488 -57.8665
rradius 18.6939
rwrist 29.9607
rhand -11.1257 -36.3051
rfingers 7.12502
rthumb 14.8994 -65.7493
lclavicle -1.21259e-014 7.15625e-015
lhumerus 0 0 0
lradius 0
lwrist 0
lhand 0 0
lfingers 0
lthumb 0 0
rfemur -65.9311 -6.45929 12.8181
rtibia 0
rfoot 0 0
rtoes 0
lfemur -68.9112 3.79928 -10.2543
ltibia 0
lfoot 0 0
ltoes 0
25
root 9.68065 11.7703 4.34586 18.7187 -1.35411 -0.0142619
lowerback -0.363168 0.470017 -2.37944
upperback 1.92839 0.69221 -1.58746
thorax 2.17316 0.318296 -0.279614
lowerneck -8.81761 -0.740518 6.42166
upperneck -15.9401 -1.15907 1.80737
head -3.73883 -1.00017 -0.494304
rclavicle 8.15017e-015 -8.34896e-015
rhumerus 63.59 -1.58132 -57.422
rradius 18.8099
rwrist 29.5393
rhand -11.2304 -36.3254
rfingers 7.12502
rthumb 14.7985 -65.7771
lclavicle 8.15017e-015 -8.34896e-015
lhumerus 0 0 0
lradius 0
lwrist 0
lhand 0 0
lfingers 0
lthumb 0 0
rfemur -66.0588 -6.52177 12.8258
rtibia 0
rfoot 0 0
rtoes 0
lfemur -69.0675 3.75002 -10.2586
ltibia 0
lfoot 0 0
ltoes 0
26
root 9.68169 11.7676 4.34309 18.7451 -1.31576 -0.0621853
lowerback -0.423905 0.444711 -2.35458
upperback 2.02921 0.662476 -1.55574
thorax 2.31129 0.301953 -0.260859
lowerneck -8.15578 -0.919275 6.14764
upperneck -16.5371 -1.30776 1.89306
head -4.07471 -1.08288 -0.411471
rclavicle -8.15017e-015 7.15625e-015
rhumerus 63.6965 -1.50123 -56.9473
rradius 18.9608
rwrist 29.1831
rhand -11.1482 -36.5051
rfingers 7.12502
rthumb 14.8778 -65.9509
lclavicle -8.15017e-015 7.15625e-015
lhumerus 0 0 0
lradius 0
lwrist 0
lhand 0 0
lfingers 0
lthumb 0 0
rfemur -66.0979 -6.54688 12.8913
rtibia 0
rfoot 0 0
rtoes 0
lfemur -69.1743 3.74822 -10.2043
ltibia 0
lfoot 0 0
ltoes 0
